# xmcd
#
# Track frame offsets:
#	150
#	19484
#	37054
#	63121
#	82007
#	102505
#	127244
#	141913
#	144388
#	169973
#	192651
#
# Disc length: 2653 seconds
#
# Revision: 1
# Processed by: cddbd v1.5.2PL0 Copyright (c) Steve Scherf et al.
# Submitted via: audiograbber 1.83.01
#
DISCID=ad0a5b0b
DTITLE=аквглистес (BY ALANTALON) - йаутяа
DYEAR=2008
DGENRE=Pop
TTITLE0=йаутяа (RADIO MIX)
TTITLE1=етси апка
TTITLE2=амоивтг стяожг
TTITLE3=айимгта яокоциа
TTITLE4=аутоптес лаятуяес
TTITLE5=лпяамти ле йаже
TTITLE6=йаи паиямы жояа
TTITLE7=йула сто бухо
TTITLE8=отам жусаеи г ацапг
TTITLE9=йаутяа
TTITLE10=йяужо йалаяи
EXTD=
EXTT0=
EXTT1=
EXTT2=
EXTT3=
EXTT4=
EXTT5=
EXTT6=
EXTT7=
EXTT8=
EXTT9=
EXTT10=
PLAYORDER=
